<svg width="53" height="65" viewBox="0 0 53 65" fill="none" xmlns="http://www.w3.org/2000/svg">
<g filter="url(#filter0_d_2_250)">
<path d="M26.0202 5.74219C25.7296 5.74219 25.4492 5.69788 25.1852 5.61572V9.5957H26.8552V5.61572C26.5912 5.69799 26.3108 5.74219 26.0202 5.74219Z" fill="#135693"/>
<path d="M26.0201 5.85363C27.6366 5.85363 28.947 4.54325 28.947 2.92682C28.947 1.31038 27.6366 0 26.0201 0C24.4037 0 23.0933 1.31038 23.0933 2.92682C23.0933 4.54325 24.4037 5.85363 26.0201 5.85363Z" fill="#6BC1DD"/>
<g opacity="0.15">
<path opacity="0.15" d="M25.5569 2.92682C25.5569 1.75063 26.251 0.736992 27.252 0.271752C26.8774 0.0977461 26.4603 0 26.0201 0C24.4037 0 23.0933 1.31044 23.0933 2.92682C23.0933 4.54319 24.4037 5.85352 26.0201 5.85352C26.4603 5.85352 26.8774 5.75577 27.252 5.58177C26.251 5.11664 25.5569 4.103 25.5569 2.92682Z" fill="#440075"/>
</g>
<path d="M44.6761 14.1637H42.9501V30.0856H44.6761C45.6222 30.0856 46.3964 29.3116 46.3964 28.3654V15.8839C46.3964 14.9379 45.6222 14.1637 44.6761 14.1637Z" fill="#9EA7AF"/>
<path d="M9.09045 14.1642H7.25064C6.30446 14.1642 5.5304 14.9384 5.5304 15.8844V28.3658C5.5304 29.3119 6.30446 30.086 7.25064 30.086H9.09033L9.09045 14.1642Z" fill="#9EA7AF"/>
<path d="M10.2635 50.9165H7.89936C7.09223 50.9165 6.34244 50.6713 5.72034 50.2512V55.8532C5.72034 56.484 6.23645 57.0001 6.86724 57.0001H10.2635V50.9165Z" fill="#C5CCD3"/>
<path d="M44.1411 50.9163H41.777V57H45.1733C45.8041 57 46.3202 56.4839 46.3202 55.8531V50.2512C45.698 50.671 44.9482 50.9163 44.1411 50.9163Z" fill="#C5CCD3"/>
<path opacity="0.15" d="M8.12881 55.8532V50.9164H7.89936C7.09223 50.9164 6.34244 50.6711 5.72034 50.2511V55.8531C5.72034 56.4839 6.23645 57 6.86724 57H9.27571C8.64493 57.0001 8.12881 56.484 8.12881 55.8532Z" fill="#440075"/>
<path d="M10.2635 42.149H7.89938C5.74585 42.149 4 43.8949 4 46.0484V47.1953C4 49.3489 5.74596 51.0946 7.89938 51.0946H10.2634L10.2635 42.149Z" fill="#E6E9ED"/>
<path d="M44.141 42.1477H41.7769V51.0934H44.141C46.2946 51.0934 48.0403 49.3475 48.0403 47.1941V46.0472C48.0403 43.8934 46.2945 42.1477 44.141 42.1477Z" fill="#E6E9ED"/>
<g opacity="0.15">
<path opacity="0.15" d="M6.75259 47.1941V46.0472C6.75259 43.8936 8.49843 42.1478 10.652 42.1478H7.89938C5.74585 42.1478 4 43.8937 4 46.0472V47.1941C4 49.3476 5.74596 51.0934 7.89938 51.0934H10.652C8.49832 51.0934 6.75259 49.3476 6.75259 47.1941Z" fill="#440075"/>
</g>
<path d="M29.8275 34.5173H22.2138V37.3624H29.8275V34.5173Z" fill="#9EA7AF"/>
<path opacity="0.15" d="M24.9882 34.5173H22.2138V37.3624H24.9882V34.5173Z" fill="#440075"/>
<path d="M34.9764 40.078V38.2272C34.9764 37.6832 34.5313 37.2382 33.9873 37.2382H17.7195C17.1754 37.2382 16.7303 37.6832 16.7303 38.2272V40.078H34.9764Z" fill="#C5CCD3"/>
<path opacity="0.15" d="M20.1605 40.078V38.2272C20.1605 37.6832 20.6056 37.2382 21.1497 37.2382H17.7195C17.1754 37.2382 16.7303 37.6832 16.7303 38.2272V40.078H20.1605Z" fill="#440075"/>
<path d="M40.1677 39.8829H11.8726C10.9264 39.8829 10.1522 40.6571 10.1522 41.6033V57.0002H41.8881V41.6033C41.8881 40.6571 41.114 39.8829 40.1677 39.8829Z" fill="#9EA7AF"/>
<g opacity="0.15">
<path opacity="0.15" d="M15.1575 39.8829H11.8726C10.9264 39.8829 10.1522 40.6571 10.1522 41.6033V57.0002H13.4372V41.6033C13.4372 40.6571 14.2114 39.8829 15.1575 39.8829Z" fill="#440075"/>
</g>
<path d="M43.0613 32.9293C43.0613 33.8755 42.2872 34.6495 41.3411 34.6495H10.6994C9.7533 34.6495 8.97913 33.8755 8.97913 32.9293V11.2046C8.97913 10.2584 9.7533 9.48438 10.6994 9.48438H41.3411C42.2872 9.48438 43.0613 10.2584 43.0613 11.2046V32.9293Z" fill="#C5CCD3"/>
<g opacity="0.15">
<path opacity="0.15" d="M12.2576 32.9293V11.2046C12.2576 10.2584 13.0318 9.48438 13.978 9.48438H10.6994C9.7533 9.48438 8.97913 10.2584 8.97913 11.2046V32.9294C8.97913 33.8756 9.7533 34.6496 10.6994 34.6496H13.978C13.0318 34.6495 12.2576 33.8755 12.2576 32.9293Z" fill="#440075"/>
</g>
<path d="M38.9903 22.0994C38.9903 25.3812 36.3299 28.0412 33.0482 28.0412H18.9921C15.7102 28.0412 13.0499 25.3811 13.0499 22.0994C13.0499 18.8177 15.7102 16.1576 18.9921 16.1576H33.0482C36.3299 16.1576 38.9903 18.8177 38.9903 22.0994Z" fill="#135693"/>
<g opacity="0.15">
<path opacity="0.15" d="M16.3863 22.0994C16.3863 18.8177 19.0466 16.1576 22.3285 16.1576H18.9921C15.7102 16.1576 13.0499 18.8178 13.0499 22.0994C13.0499 25.3812 15.7102 28.0412 18.9921 28.0412H22.3285C19.0466 28.0412 16.3863 25.3811 16.3863 22.0994Z" fill="#440075"/>
</g>
<path d="M18.3986 24.4199C19.6747 24.4199 20.7091 23.3814 20.7091 22.1003C20.7091 20.8192 19.6747 19.7806 18.3986 19.7806C17.1226 19.7806 16.0881 20.8192 16.0881 22.1003C16.0881 23.3814 17.1226 24.4199 18.3986 24.4199Z" fill="#6BC1DD"/>
<path d="M33.6861 24.4195C34.9622 24.4195 35.9966 23.381 35.9966 22.0999C35.9966 20.8188 34.9622 19.7803 33.6861 19.7803C32.4101 19.7803 31.3756 20.8188 31.3756 22.0999C31.3756 23.381 32.4101 24.4195 33.6861 24.4195Z" fill="#6BC1DD"/>
<path d="M36.2704 57V47.0016C36.2704 46.3709 35.7542 45.8547 35.1235 45.8547H16.9169C16.2861 45.8547 15.77 46.3709 15.77 47.0016V57H36.2704Z" fill="#135693"/>
<path d="M28.0845 57V53.7753C28.0845 53.586 27.9296 53.4312 27.7405 53.4312H24.2998C24.1106 53.4312 23.9557 53.586 23.9557 53.7753V57H28.0845Z" fill="#FFC502"/>
<path d="M21.2034 49.4443H18.5656C18.1044 49.4443 17.7307 49.0706 17.7307 48.6094C17.7307 48.1481 18.1044 47.7744 18.5656 47.7744H21.2034C21.6647 47.7744 22.0384 48.1481 22.0384 48.6094C22.0384 49.0705 21.6647 49.4443 21.2034 49.4443Z" fill="#C5CCD3"/>
<path d="M20.0563 51.4825H18.5653C18.1041 51.4825 17.7303 51.1088 17.7303 50.6476C17.7303 50.1864 18.1041 49.8126 18.5653 49.8126H20.0563C20.5176 49.8126 20.8913 50.1864 20.8913 50.6476C20.8913 51.1088 20.5174 51.4825 20.0563 51.4825Z" fill="#C5CCD3"/>
<path d="M21.2031 53.5214H18.5653C18.1041 53.5214 17.7303 53.1475 17.7303 52.6864C17.7303 52.2252 18.1041 51.8514 18.5653 51.8514H21.2031C21.6643 51.8514 22.0381 52.2252 22.0381 52.6864C22.0381 53.1476 21.6643 53.5214 21.2031 53.5214Z" fill="#C5CCD3"/>
<path d="M19.7122 55.5594H18.5653C18.1041 55.5594 17.7303 55.1857 17.7303 54.7245C17.7303 54.2634 18.1041 53.8895 18.5653 53.8895H19.7122C20.1734 53.8895 20.5472 54.2634 20.5472 54.7245C20.5472 55.1857 20.1733 55.5594 19.7122 55.5594Z" fill="#C5CCD3"/>
<path d="M33.0962 54.7209H31.0603C30.5772 54.7209 30.1858 54.3293 30.1858 53.8462C30.1858 53.363 30.5773 52.9716 31.0603 52.9716H33.0962C33.5793 52.9716 33.9709 53.3631 33.9709 53.8462C33.9709 54.3294 33.5793 54.7209 33.0962 54.7209Z" fill="#E6E9ED"/>
<path d="M32.0786 51.6897C33.0931 51.6897 33.9155 50.8673 33.9155 49.8528C33.9155 48.8383 33.0931 48.0159 32.0786 48.0159C31.0641 48.0159 30.2416 48.8383 30.2416 49.8528C30.2416 50.8673 31.0641 51.6897 32.0786 51.6897Z" fill="#5DC647"/>
<path d="M28.1354 50.8132C28.1354 51.0072 27.9768 51.1657 27.783 51.1657H24.2574C24.0636 51.1657 23.905 51.0072 23.905 50.8132V48.8913C23.905 48.6973 24.0636 48.5387 24.2574 48.5387H27.783C27.9768 48.5387 28.1354 48.6973 28.1354 48.8913V50.8132Z" fill="#6BC1DD"/>
</g>
<defs>
<filter id="filter0_d_2_250" x="0" y="0" width="52.0403" height="65.0002" filterUnits="userSpaceOnUse" color-interpolation-filters="sRGB">
<feFlood flood-opacity="0" result="BackgroundImageFix"/>
<feColorMatrix in="SourceAlpha" type="matrix" values="0 0 0 0 0 0 0 0 0 0 0 0 0 0 0 0 0 0 127 0" result="hardAlpha"/>
<feOffset dy="4"/>
<feGaussianBlur stdDeviation="2"/>
<feComposite in2="hardAlpha" operator="out"/>
<feColorMatrix type="matrix" values="0 0 0 0 0 0 0 0 0 0 0 0 0 0 0 0 0 0 0.25 0"/>
<feBlend mode="normal" in2="BackgroundImageFix" result="effect1_dropShadow_2_250"/>
<feBlend mode="normal" in="SourceGraphic" in2="effect1_dropShadow_2_250" result="shape"/>
</filter>
</defs>
</svg>
